0.16m3min_grf.mot
version=1
nRows=17
nColumns 19
inDegrees=yes
endheader
time	1_ground_force_vx	1_ground_force_vy	1_ground_force_vz	1_ground_force_px	1_ground_force_py	1_ground_force_pz	1_ground_torque_x	1_ground_torque_y	1_ground_torque_z	2_ground_force_vx	2_ground_force_vy	2_ground_force_vz	2_ground_force_px	2_ground_force_py	2_ground_force_pz	2_ground_torque_x	2_ground_torque_y	2_ground_torque_z
            3.751500	           12.857379	          463.397235	          -66.188693	           -0.280261	            0.005931	           -0.339268	           -0.013310	           -0.479693	            0.068516	           26.015317	          727.901145	           42.004787	           -0.333858	            0.005270	           -0.695191	            0.022994	            0.643373	            0.037127
            3.752000	           13.458494	          455.098837	          -64.758340	           -0.280073	            0.005931	           -0.339260	           -0.010737	           -0.363073	            0.051664	           26.384142	          716.487796	           41.213060	           -0.333925	            0.005269	           -0.695029	            0.023865	            0.648076	            0.037278
            3.752500	           13.969035	          444.455759	          -63.062664	           -0.279898	            0.005931	           -0.339282	           -0.005429	           -0.172746	            0.024510	           26.611734	          705.258186	           40.375122	           -0.333867	            0.005269	           -0.695133	            0.027802	            0.736793	            0.042180
            3.753000	           14.479525	          434.713842	          -61.317278	           -0.279847	            0.005933	           -0.339603	           -0.000598	           -0.017965	            0.002534	           27.070898	          694.766274	           39.492784	           -0.333853	            0.005269	           -0.695151	            0.027241	            0.699134	            0.039741
            3.753500	           14.623220	          425.873017	          -59.521258	           -0.279465	            0.005931	           -0.339245	           -0.004139	           -0.120554	            0.016849	           27.296578	          684.088600	           38.844530	           -0.333781	            0.005270	           -0.695216	            0.025744	            0.645168	            0.036635
            3.754000	           14.766882	          417.212427	          -57.724465	           -0.279259	            0.005931	           -0.339249	           -0.011218	           -0.316937	            0.043851	           27.897661	          673.228580	           38.054675	           -0.333602	            0.005271	           -0.695211	            0.028103	            0.678184	            0.038335
            3.754500	           15.414494	          407.831658	          -56.115439	           -0.279126	            0.005932	           -0.339321	           -0.015152	           -0.400876	            0.055158	           28.034897	          661.077700	           37.260419	           -0.333897	            0.005269	           -0.695109	            0.028466	            0.671239	            0.037833
            3.755000	           15.695460	          397.909991	          -54.507822	           -0.279008	            0.005932	           -0.339314	           -0.015596	           -0.395395	            0.054163	           28.401042	          650.401203	           36.424393	           -0.333855	            0.005269	           -0.695028	            0.029171	            0.668032	            0.037412
            3.755500	           16.112733	          389.071775	          -53.308608	           -0.278749	            0.005932	           -0.339491	           -0.011239	           -0.271393	            0.037185	           28.436665	          640.459293	           35.778846	           -0.333671	            0.005270	           -0.695218	            0.032106	            0.723108	            0.040396
            3.756000	           16.761597	          379.688843	          -51.195171	           -0.278678	            0.005933	           -0.339632	           -0.002136	           -0.048392	            0.006525	           28.525079	          628.860681	           35.033510	           -0.333689	            0.005270	           -0.695018	            0.035867	            0.790730	            0.044051
            3.756500	           17.179031	          372.472201	          -49.805576	           -0.278121	            0.005932	           -0.339388	            0.000859	            0.018628	           -0.002491	           28.843774	          618.367593	           34.338945	           -0.333516	            0.005271	           -0.695129	            0.034186	            0.732904	            0.040699
            3.757000	           17.598207	          362.549381	          -47.923165	           -0.278071	            0.005933	           -0.339561	           -0.001123	           -0.023129	            0.003057	           28.787587	          607.873820	           33.456826	           -0.333564	            0.005271	           -0.695359	            0.037403	            0.789794	            0.043470
            3.757500	           17.832545	          355.692645	          -46.394005	           -0.277603	            0.005932	           -0.339238	           -0.010671	           -0.212845	            0.027762	           29.294367	          597.197039	           32.808452	           -0.333447	            0.005271	           -0.695215	            0.037158	            0.757500	            0.041615
            3.758000	           18.343198	          345.049431	          -44.652485	           -0.278051	            0.005933	           -0.339717	           -0.013180	           -0.247931	            0.032084	           29.659909	          586.704119	           32.113867	           -0.333525	            0.005272	           -0.695615	            0.039886	            0.788981	            0.043186
            3.758500	           18.302056	          338.013132	          -43.306839	           -0.277552	            0.005932	           -0.339425	           -0.014969	           -0.276458	            0.035420	           29.557704	          576.024759	           31.606536	           -0.333445	            0.005271	           -0.695267	            0.043477	            0.847277	            0.046490
            3.759000	           18.627803	          329.535036	          -42.014139	           -0.277096	            0.005933	           -0.339576	           -0.005838	           -0.103277	            0.013167	           29.644223	          564.977672	           31.097812	           -0.333720	            0.005269	           -0.694989	            0.043246	            0.824200	            0.045366
            3.759500	           19.045680	          320.515541	          -40.586422	           -0.276969	            0.005934	           -0.339678	            0.004554	            0.076636	           -0.009704	           29.677043	          555.773618	           30.126397	           -0.333405	            0.005272	           -0.695558	            0.047503	            0.889601	            0.048222
